<svg width="25" height="26" viewBox="0 0 25 26" fill="none" xmlns="http://www.w3.org/2000/svg">
<g clip-path="url(#clip0_31_1592)">
<path d="M19.7972 20.4313C19.5846 20.2687 19.2806 20.3095 19.1181 20.522C18.9556 20.7346 18.9963 21.0387 19.2089 21.2011L20.0368 21.8339C20.1211 21.8985 20.2245 21.9335 20.3307 21.9335C20.3984 21.9335 20.4654 21.9194 20.5273 21.892C20.5892 21.8645 20.6446 21.8244 20.69 21.7742L22.2725 20.027C22.452 19.8286 22.4369 19.5222 22.2386 19.3427C22.0403 19.1631 21.7339 19.1782 21.5543 19.3765L20.2711 20.7935L19.7972 20.4313Z" fill="#171616"/>
<path d="M24.941 17.8453C24.9384 17.726 24.8918 17.612 24.8102 17.5249C24.7286 17.4379 24.6178 17.384 24.4989 17.3736C23.3464 17.2729 21.9282 16.4987 20.8857 15.4015C20.8405 15.3538 20.786 15.3159 20.7257 15.29C20.6653 15.2641 20.6003 15.2507 20.5346 15.2507H20.5345C20.4688 15.2507 20.4039 15.264 20.3435 15.2899C20.2832 15.3158 20.2287 15.3536 20.1835 15.4012C19.7155 15.8931 19.1724 16.3197 18.6118 16.6502C17.6283 15.5522 16.4177 14.7433 14.9989 14.234C14.9865 14.2291 14.974 14.2246 14.9612 14.2206C14.8501 14.1813 14.7383 14.1439 14.6259 14.1086C15.8258 12.9119 16.6329 11.3392 16.6329 9.92839V9.16726C17.2001 8.92028 17.5979 8.35414 17.5979 7.69658C17.5979 7.01353 17.168 6.42932 16.5647 6.19945C16.3157 3.78193 14.6125 1.74972 12.2729 1.07738C12.2037 0.748093 11.9112 0.5 11.5617 0.5H9.80613C9.46905 0.5 9.18568 0.730991 9.10391 1.04284C7.95307 1.34975 6.90189 2.00483 6.11376 2.91562C5.31382 3.84007 4.81638 4.99454 4.69003 6.19969C4.08644 6.42971 3.65638 7.01378 3.65638 7.69662C3.65638 8.35443 4.05475 8.92071 4.62274 9.16755V9.92844C4.62274 11.3379 5.42999 12.9112 6.62986 14.1087C6.52064 14.143 6.41203 14.1792 6.30406 14.2172C6.28294 14.2232 6.2624 14.2306 6.24239 14.2394C4.65432 14.8122 3.3285 15.7605 2.2902 17.0701C1.29163 18.3296 0.581747 19.8849 0.180323 21.6933C0.037455 22.3396 -0.0699985 23.1518 0.370668 23.7005C0.801112 24.2364 1.57131 24.3051 2.19428 24.3051H5.36338C5.63095 24.3051 5.84784 24.0882 5.84784 23.8207C5.84784 23.5531 5.63095 23.3362 5.36338 23.3362H2.19428C1.61472 23.3362 1.25534 23.2546 1.12614 23.0937C0.989276 22.9233 0.989373 22.5225 1.12628 21.9029C1.62978 19.635 2.8609 16.8598 5.82711 15.4586C5.73588 17.0952 6.62269 18.165 7.18636 18.844C7.22904 18.8954 7.2819 18.9374 7.34161 18.9674C7.40132 18.9975 7.46659 19.0148 7.53332 19.0183C7.60005 19.0219 7.6668 19.0116 7.72936 18.9882C7.79193 18.9647 7.84896 18.9285 7.89687 18.8819L10.6272 16.2267L13.3588 18.882C13.4068 18.9286 13.4639 18.9648 13.5265 18.9882C13.5891 19.0117 13.6558 19.0219 13.7226 19.0183C13.7894 19.0147 13.8547 18.9973 13.9144 18.9673C13.9741 18.9372 14.0269 18.8951 14.0696 18.8436C14.6325 18.1641 15.518 17.0937 15.4276 15.4605C16.2881 15.8687 17.0484 16.4146 17.7023 17.0947C17.3118 17.2458 16.928 17.3423 16.57 17.3736C16.4512 17.384 16.3404 17.4379 16.2589 17.5248C16.1773 17.6118 16.1306 17.7258 16.1279 17.845C16.0873 19.5771 16.376 20.818 17.1571 22.2705C17.1637 22.2828 17.4276 22.7559 17.8388 23.3363H9.74936C9.48179 23.3363 9.26489 23.5532 9.26489 23.8208C9.26489 24.0883 9.48179 24.3052 9.74936 24.3052H18.6083C19.1923 24.9507 19.8812 25.5001 20.5344 25.5001C22.1105 25.5001 23.8945 22.3028 23.9116 22.2708C24.6914 20.8181 24.98 19.5774 24.941 17.8453ZM15.5758 6.09485H12.9085C12.4045 4.77842 12.3092 3.69289 12.2921 2.09935C14.0395 2.71738 15.3098 4.25923 15.5758 6.09485ZM10.0481 1.46892H11.3196C11.3227 3.34418 11.3702 4.61424 11.8779 6.09485H9.49085C9.99764 4.61419 10.0451 3.34398 10.0481 1.46892ZM9.07615 2.06113C9.06016 3.67564 8.96753 4.76786 8.46049 6.0949H5.67959C5.95593 4.23539 7.29265 2.65174 9.07615 2.06113ZM5.25951 7.06377H8.50046C8.529 7.08693 8.55661 7.08988 8.57977 7.06377H15.9961C16.3451 7.06377 16.629 7.34762 16.629 7.69662C16.629 8.04636 16.3452 8.33088 15.9961 8.33088H5.25951C4.90983 8.33088 4.6253 8.04636 4.6253 7.69662C4.6253 7.34767 4.90978 7.06377 5.25951 7.06377ZM5.59166 9.92844V9.29976H15.664V9.92844C15.664 11.7755 13.8745 14.0599 11.8346 14.8171C10.942 15.1489 10.3082 15.1486 9.41353 14.8161C7.37758 14.0557 5.59166 11.7717 5.59166 9.92844ZM7.60227 17.8168C7.10085 17.1622 6.61804 16.3028 6.8501 15.0553C7.06887 14.9846 7.29018 14.922 7.51357 14.8677C8.0021 15.2261 8.529 15.52 9.07523 15.7241C9.24279 15.7865 9.41313 15.8412 9.5857 15.8879L7.60227 17.8168ZM13.6529 17.8165L11.6683 15.8874C11.8385 15.8411 12.0066 15.7871 12.1719 15.7255C12.7208 15.5217 13.2503 15.2271 13.7411 14.8676C13.9644 14.9217 14.1856 14.9842 14.4042 15.0548C14.6368 16.3006 14.1542 17.1609 13.6529 17.8165ZM23.0578 21.8128C22.4848 22.8821 21.1431 24.5311 20.5344 24.5311C19.9258 24.5311 18.584 22.8821 18.0108 21.8121C17.3706 20.6217 17.1078 19.629 17.0936 18.2774C17.6162 18.1779 18.1603 17.9829 18.6954 17.7105C18.7143 17.7022 18.7327 17.6926 18.7505 17.6819C19.3752 17.3572 19.9862 16.9274 20.5342 16.4166C21.566 17.3793 22.8222 18.0581 23.9749 18.2774C23.9596 19.6292 23.697 20.6222 23.0578 21.8128Z" fill="black"/>
<path d="M7.55636 23.3362C7.28879 23.3362 7.0719 23.5531 7.0719 23.8206C7.0719 24.0882 7.28879 24.3051 7.55636 24.3051H7.55912C7.82669 24.3051 8.04218 24.0882 8.04218 23.8206C8.04218 23.5531 7.82393 23.3362 7.55636 23.3362Z" fill="black"/>
</g>
<defs>
<clipPath id="clip0_31_1592">
<rect width="25" height="25" fill="white" transform="translate(0 0.5)"/>
</clipPath>
</defs>
</svg>
